<svg width="36" height="37" viewBox="0 0 36 37" fill="none" xmlns="http://www.w3.org/2000/svg">
<path d="M14.8378 27.192C14.6329 27.1914 14.4303 27.1486 14.2426 27.0663C14.0549 26.984 13.8862 26.864 13.7468 26.7138L6.48321 18.9869C6.21169 18.6975 6.06624 18.3121 6.07885 17.9155C6.09146 17.5189 6.26111 17.1436 6.55047 16.8721C6.83983 16.6005 7.2252 16.4551 7.6218 16.4677C8.01841 16.4803 8.39376 16.65 8.66528 16.9393L14.8229 23.5005L27.3922 9.75045C27.5197 9.59161 27.6784 9.46053 27.8585 9.36525C28.0385 9.26997 28.2362 9.2125 28.4393 9.19639C28.6423 9.18027 28.8466 9.20584 29.0394 9.27152C29.2322 9.33721 29.4096 9.44162 29.5606 9.57835C29.7116 9.71508 29.8331 9.88123 29.9176 10.0666C30.002 10.252 30.0477 10.4527 30.0518 10.6564C30.0558 10.86 30.0182 11.0624 29.9413 11.251C29.8643 11.4396 29.7496 11.6105 29.6041 11.7532L15.9438 26.6988C15.8058 26.8518 15.6376 26.9746 15.4498 27.0595C15.2621 27.1443 15.0588 27.1895 14.8528 27.192H14.8378Z" fill="#231F20"/>
</svg>
