<svg fill="none" height="48" viewBox="0 0 48 48" width="48" xmlns="http://www.w3.org/2000/svg"><path d="m0 0h48v48h-48z" fill="#fff" fill-opacity=".01"/><g stroke="#000" stroke-width="4"><path d="m12 4h24" stroke-linecap="round"/><path clip-rule="evenodd" d="m18.019 4v11.0386l-11.74457 24.2628c-.78751 1.6269-.10706 3.5841 1.51984 4.3716.44455.2152.93203.327 1.42592.327h29.56731c1.8075 0 3.2727-1.4653 3.2727-3.2727 0-.4925-.1111-.9785-.3251-1.4221l-11.7069-24.2666v-11.0386z" fill-rule="evenodd" stroke-linejoin="round"/><path d="m10.9604 29.9998c2.1637 1.3403 4.3289 2.0105 6.4955 2.0105 2.1667 0 4.3349-.6702 6.5046-2.0105 2.1483-1.3263 4.3059-1.9895 6.4725-1.9895 2.1667 0 4.3425.6632 6.5274 1.9895" stroke-linecap="round"/></g></svg>