<svg width="58" height="58" viewBox="0 0 58 58" fill="none" xmlns="http://www.w3.org/2000/svg">
<path d="M45.5224 26.3551H31.1469V11.9796C31.1469 11.3442 30.8945 10.7347 30.4452 10.2854C29.9959 9.83611 29.3864 9.58368 28.751 9.58368C28.1156 9.58368 27.5062 9.83611 27.0568 10.2854C26.6075 10.7347 26.3551 11.3442 26.3551 11.9796V26.3551H11.9796C11.3442 26.3551 10.7347 26.6075 10.2854 27.0568C9.83611 27.5062 9.58368 28.1156 9.58368 28.751C9.58368 29.3864 9.83611 29.9959 10.2854 30.4452C10.7347 30.8945 11.3442 31.1469 11.9796 31.1469H26.3551V45.5224C26.3551 46.1579 26.6075 46.7673 27.0568 47.2166C27.5062 47.6659 28.1156 47.9183 28.751 47.9183C29.3864 47.9183 29.9959 47.6659 30.4452 47.2166C30.8945 46.7673 31.1469 46.1579 31.1469 45.5224V31.1469H45.5224C46.1579 31.1469 46.7673 30.8945 47.2166 30.4452C47.6659 29.9959 47.9183 29.3864 47.9183 28.751C47.9183 28.1156 47.6659 27.5062 47.2166 27.0568C46.7673 26.6075 46.1579 26.3551 45.5224 26.3551Z" fill="white"/>
</svg>
