<svg
	width="58"
	height="58"
	viewBox="0 0 58 58"
	fill="none"
	xmlns="http://www.w3.org/2000/svg"
>
	<path
		d="M40.4106 16.428L43.864 19.8815L32.1606 31.585L24.2703 23.6948C23.335 22.7594 21.8241 22.7594 20.8888 23.6948L6.49922 38.1083C5.5639 39.0436 5.5639 40.5545 6.49922 41.4898C7.43454 42.4251 8.94544 42.4251 9.88076 41.4898L22.5675 28.7791L30.4578 36.6693C31.3931 37.6046 32.904 37.6046 33.8393 36.6693L47.2456 23.2871L50.6991 26.7405C51.4425 27.484 52.7376 26.9564 52.7376 25.9012V15.5887C52.7616 14.9171 52.234 14.3895 51.5624 14.3895H41.2739C40.1947 14.3895 39.6671 15.6846 40.4106 16.428Z"
		fill="black"
	/>
</svg>