<svg width="36" height="37" viewBox="0 0 36 37" fill="none" xmlns="http://www.w3.org/2000/svg">
<path d="M28.4982 16.7301H10.7726L16.1979 10.2138C16.4516 9.90855 16.5737 9.51506 16.5372 9.11986C16.5008 8.72466 16.3088 8.36012 16.0036 8.10643C15.6984 7.85275 15.3049 7.7307 14.9097 7.76713C14.5145 7.80357 14.15 7.99551 13.8963 8.30072L6.42346 17.2681C6.37319 17.3394 6.32823 17.4144 6.28895 17.4923C6.28895 17.567 6.28895 17.6119 6.18433 17.6866C6.11659 17.858 6.08112 18.0404 6.07971 18.2246C6.08112 18.4089 6.11659 18.5913 6.18433 18.7627C6.18433 18.8374 6.18433 18.8822 6.28895 18.957C6.32823 19.0349 6.37319 19.1098 6.42346 19.1812L13.8963 28.1486C14.0368 28.3173 14.2128 28.4529 14.4117 28.5459C14.6106 28.6389 14.8275 28.687 15.0471 28.6866C15.3963 28.6873 15.7347 28.5657 16.0036 28.3428C16.155 28.2174 16.2801 28.0633 16.3718 27.8894C16.4634 27.7155 16.5199 27.5252 16.538 27.3295C16.556 27.1337 16.5353 26.9363 16.4769 26.7486C16.4186 26.5609 16.3238 26.3865 16.1979 26.2355L10.7726 19.7192H28.4982C28.8946 19.7192 29.2747 19.5617 29.555 19.2815C29.8353 19.0012 29.9928 18.621 29.9928 18.2246C29.9928 17.8283 29.8353 17.4481 29.555 17.1678C29.2747 16.8875 28.8946 16.7301 28.4982 16.7301Z" fill="#231F20"/>
</svg>
